<?xml version="1.0" encoding="UTF-8" standalone="no"?>
<!-- Created with Inkscape (http://www.inkscape.org/) -->
<svg
   xmlns:dc="http://purl.org/dc/elements/1.1/"
   xmlns:cc="http://web.resource.org/cc/"
   xmlns:rdf="http://www.w3.org/1999/02/22-rdf-syntax-ns#"
   xmlns:svg="http://www.w3.org/2000/svg"
   xmlns="http://www.w3.org/2000/svg"
   xmlns:sodipodi="http://sodipodi.sourceforge.net/DTD/sodipodi-0.dtd"
   xmlns:inkscape="http://www.inkscape.org/namespaces/inkscape"
   height="705.75"
   width="1139.02"
   id="svg2"
   sodipodi:version="0.32"
   inkscape:version="0.44"
   sodipodi:docbase="D:\dokumenty\kot\do wiki"
   sodipodi:docname="LPR logo.svg"
   version="1.0">
  <defs
     id="defs4" />
  <sodipodi:namedview
     id="base"
     pagecolor="#ffffff"
     bordercolor="#666666"
     borderopacity="1.0"
     inkscape:pageopacity="0.0"
     inkscape:pageshadow="2"
     inkscape:cx="1135.7597"
     inkscape:cy="453.28405"
     inkscape:zoom="0.40189487"
     inkscape:document-units="px"
     inkscape:current-layer="layer1"
     showguides="true"
     inkscape:guide-bbox="true"
     inkscape:window-width="1024"
     inkscape:window-height="682"
     inkscape:window-x="-4"
     inkscape:window-y="-4"
     width="1139.02px"
     height="705.75px" />
  <metadata
     id="metadata7">
    <rdf:RDF>
      <cc:Work
         rdf:about="">
        <dc:format>image/svg+xml</dc:format>
        <dc:type
           rdf:resource="http://purl.org/dc/dcmitype/StillImage" />
      </cc:Work>
    </rdf:RDF>
  </metadata>
  <g
     inkscape:groupmode="layer"
     inkscape:label="Warstwa 1"
     id="layer1"
     transform="translate(32.45623,-53.51895)">
    <g
       id="g5513"
       transform="translate(3.501521,2.502259)">
      <path
         sodipodi:nodetypes="csssscc"
         id="path1933"
         d="M -24.837874,378.52837 C 53.002053,346.41567 484.54284,185.82344 820.99443,419.63444 C 822.68847,420.94709 824.17199,419.5573 824.17199,419.5573 C 832.98935,410.34276 884.97268,356.24912 944.25325,299.47486 C 945.36895,298.46935 944.25858,297.12123 944.25858,297.12123 C 914.97036,278.14479 448.45621,-13.018516 -26.529926,375.00842 C -26.910548,375.4842 -39.582049,384.71688 -24.837874,378.52837 z "
         style="opacity:1;color:black;fill:#d6312b;fill-opacity:1;fill-rule:nonzero;stroke:#d6312b;stroke-width:1;stroke-linecap:butt;stroke-linejoin:round;marker:none;marker-start:none;marker-mid:none;marker-end:none;stroke-miterlimit:4;stroke-dasharray:none;stroke-dashoffset:0;stroke-opacity:1;visibility:visible;display:inline;overflow:visible" />
      <path
         sodipodi:nodetypes="ccscccsc"
         id="path3707"
         d="M 458.8468,79.959931 C 458.8468,79.959931 833.89593,-2.651147 1082.702,218.49637 C 1082.702,218.49637 1084.3265,220.81995 1088.9278,217.08139 C 1093.5291,213.34283 1093.5291,213.34283 1093.5291,213.34283 C 1093.5291,213.34283 1103.882,207.30362 1096.2611,199.8265 C 1096.2611,199.8265 884.60103,-4.7310123 460.13058,70.73135 C 460.13058,70.73135 457.51491,71.431682 456.00508,74.322243 C 455.22387,75.817867 453.06107,81.261679 458.8468,79.959931 z "
         style="opacity:1;color:black;fill:#d6312b;fill-opacity:1;fill-rule:nonzero;stroke:#d6312b;stroke-width:1;stroke-linecap:butt;stroke-linejoin:miter;marker:none;marker-start:none;marker-mid:none;marker-end:none;stroke-miterlimit:4;stroke-dasharray:none;stroke-dashoffset:0;stroke-opacity:1;visibility:visible;display:inline;overflow:visible" />
      <path
         id="path4598"
         d="M -22.00194,753.76443 L 29.335919,447.8327 L 97.437161,447.8327 L 57.624127,694.04488 L 180.20636,694.04488 L 168.68154,753.76443 L -22.00194,753.76443 z "
         style="opacity:1;color:black;fill:#249dd4;fill-opacity:1;fill-rule:nonzero;stroke:#249dd4;stroke-width:1;stroke-linecap:butt;stroke-linejoin:miter;marker:none;marker-start:none;marker-mid:none;marker-end:none;stroke-miterlimit:4;stroke-dasharray:none;stroke-dashoffset:0;stroke-opacity:1;visibility:visible;display:inline;overflow:visible" />
      <path
         id="path4600"
         d="M 373,446.78125 C 276.84199,446.78124 263.16765,453.83839 261.90625,454.375 L 212.6875,753.75 L 281.84375,753.75 L 298.59375,646.90625 C 298.59375,646.90623 443.1691,658.43408 466.21875,545.28125 C 466.21876,545.28127 484.05741,446.78125 373,446.78125 z M 261.90625,454.375 L 261.9375,454.125 C 261.79694,454.40612 261.7108,454.45815 261.90625,454.375 z M 350.5625,499.5 C 376.74408,499.36333 406.13027,506.54533 397.09375,549.46875 C 385.57512,604.18226 309.12499,590.31248 309.125,590.3125 L 323.78125,501.3125 C 330.55863,500.72316 340.31754,499.55348 350.5625,499.5 z "
         style="opacity:1;color:black;fill:#249dd4;fill-opacity:1;fill-rule:nonzero;stroke:#249dd4;stroke-width:1;stroke-linecap:butt;stroke-linejoin:miter;marker:none;marker-start:none;marker-mid:none;marker-end:none;stroke-miterlimit:4;stroke-dasharray:none;stroke-dashoffset:0;stroke-opacity:1;visibility:visible;display:inline;overflow:visible" />
      <path
         id="path4622"
         d="M 635.96875,446.78125 C 539.81074,446.78125 526.13642,453.8384 524.875,454.375 L 475.65625,753.75 L 544.8125,753.75 L 564.75,633.28125 C 642.28064,621.75642 626.9061,689.80922 628.625,711.84375 C 630.72043,738.70482 637,751.65625 637,751.65625 L 706.15625,751.65625 C 700.91769,747.4654 696.73688,668.89175 693.59375,647.9375 C 690.45062,626.98327 665.28124,609.18752 665.28125,609.1875 C 717.66682,591.3764 729.21874,545.28127 729.21875,545.28125 C 729.21875,545.28125 747.02616,446.78124 635.96875,446.78125 z M 524.875,454.375 L 524.90625,454.125 C 524.76569,454.40612 524.67955,454.45815 524.875,454.375 z M 609.03125,497.21875 C 636.96453,496.82327 671.12118,503.36579 660.0625,547.78125 C 648.54387,594.04409 572.09375,581.03126 572.09375,581.03125 L 585.0625,498.78125 C 591.08684,498.25739 599.72016,497.35058 609.03125,497.21875 z "
         style="opacity:1;color:black;fill:#249dd4;fill-opacity:1;fill-rule:nonzero;stroke:#249dd4;stroke-width:1;stroke-linecap:butt;stroke-linejoin:miter;marker:none;marker-start:none;marker-mid:none;marker-end:none;stroke-miterlimit:4;stroke-dasharray:none;stroke-dashoffset:0;stroke-opacity:1;visibility:visible;display:inline;overflow:visible" />
    </g>
  </g>
</svg>
